<svg version="1.1" id="Layer_1" xmlns="http://www.w3.org/2000/svg" xmlns:xlink="http://www.w3.org/1999/xlink" x="0px" y="0px"
	 width="100%" viewBox="0 0 2048 2046" enable-background="new 0 0 2048 2046" xml:space="preserve">
<path fill="#E47347" opacity="1.000000" stroke="none" 
	d="
M1102.000000,2047.000000 
	C1050.645752,2047.000000 999.291565,2047.000000 947.542480,2046.574707 
	C945.473572,2045.766235 943.817261,2045.187988 942.122253,2045.033203 
	C933.754333,2044.268921 925.346313,2043.864868 917.008728,2042.864990 
	C905.301636,2041.461182 893.644958,2039.636963 881.965027,2038.005127 
	C869.967773,2036.329102 857.877747,2035.147339 845.990173,2032.894653 
	C825.312317,2028.976440 804.574463,2025.122681 784.200867,2019.915405 
	C759.748230,2013.665527 735.532654,2006.403931 711.436035,1998.871338 
	C692.021057,1992.802368 672.836670,1985.948242 653.740173,1978.925171 
	C641.883118,1974.564453 630.350464,1969.309814 618.727600,1964.327148 
	C606.954529,1959.280273 595.067810,1954.447388 583.563904,1948.837769 
	C570.972656,1942.697998 558.766663,1935.768921 546.385376,1929.197754 
	C535.373779,1923.353394 524.276917,1917.664551 513.360229,1911.648438 
	C505.550262,1907.344604 497.948456,1902.658691 490.310425,1898.049316 
	C487.376892,1896.278931 484.626434,1894.207886 481.748260,1892.342285 
	C470.598022,1885.114868 459.272644,1878.144531 448.316223,1870.635254 
	C438.888458,1864.173706 429.932220,1857.028442 420.658417,1850.336670 
	C413.198456,1844.953857 405.355865,1840.081909 398.076691,1834.472534 
	C387.411072,1826.253296 376.951263,1817.750122 366.672638,1809.050293 
	C355.462311,1799.562012 344.455780,1789.825439 333.556335,1779.979980 
	C325.874695,1773.041138 318.539734,1765.719360 311.005066,1758.616211 
	C309.094879,1756.815430 306.819092,1755.376465 305.044769,1753.462158 
	C298.893127,1746.825073 293.023865,1739.923096 286.789948,1733.366333 
	C280.369141,1726.612915 273.463074,1720.317383 267.109650,1713.504150 
	C260.844482,1706.785400 255.032959,1699.645020 248.970871,1692.734985 
	C243.802124,1686.843140 238.282715,1681.235962 233.414017,1675.109131 
	C225.640579,1665.327148 218.296158,1655.204956 210.736053,1645.252686 
	C204.849792,1637.503784 198.616852,1629.999268 193.065216,1622.019531 
	C184.761581,1610.084351 176.772720,1597.922119 168.924622,1585.680420 
	C160.978790,1573.286255 153.328827,1560.701294 145.623322,1548.154541 
	C141.052963,1540.712402 136.494949,1533.257080 132.168549,1525.672363 
	C127.192131,1516.948120 122.344452,1508.144165 117.686050,1499.246582 
	C112.764725,1489.847168 108.020439,1480.350708 103.402580,1470.797974 
	C97.973976,1459.567749 92.632408,1448.291260 87.508484,1436.919678 
	C84.335175,1429.877075 81.636063,1422.620605 78.725838,1415.459473 
	C74.555016,1405.196045 70.100540,1395.036987 66.280731,1384.644531 
	C60.037968,1367.659912 53.927673,1350.615112 48.294785,1333.421021 
	C43.806503,1319.720825 39.843128,1305.831665 36.147144,1291.893677 
	C32.721409,1278.974731 29.821688,1265.910522 26.934813,1252.856079 
	C21.924797,1230.200684 15.889407,1207.795776 13.746839,1184.511475 
	C12.116949,1166.798950 8.170898,1149.311035 6.067635,1131.626587 
	C4.404239,1117.640625 4.017500,1103.504639 2.922405,1089.446167 
	C2.829591,1088.254761 1.666122,1087.146729 1.000024,1086.000000 
	C1.000000,1044.645752 1.000000,1003.291565 1.422956,961.594055 
	C2.219988,960.571106 2.869346,959.913696 2.926449,959.208374 
	C3.665294,950.080750 4.237433,940.939270 5.017142,931.815430 
	C5.938358,921.035889 6.636640,910.217041 8.116633,899.509949 
	C10.802989,880.075439 13.637609,860.647095 17.078493,841.335205 
	C20.515673,822.044373 24.451632,802.826904 28.780846,783.715881 
	C31.657743,771.015930 35.438789,758.509277 39.121338,746.006287 
	C44.243301,728.616089 49.407959,711.230774 55.027184,693.997559 
	C58.535496,683.238098 62.953766,672.777039 66.893242,662.156006 
	C71.744583,649.076477 76.288940,635.877502 81.412437,622.906433 
	C84.977043,613.881958 89.128532,605.075623 93.317314,596.315002 
	C98.137589,586.233704 103.338531,576.335083 108.278297,566.309937 
	C112.031044,558.693787 115.396400,550.877625 119.378273,543.386536 
	C122.587097,537.349731 126.543396,531.715149 130.021652,525.815857 
	C137.746780,512.713684 145.362656,499.547058 153.063461,486.430450 
	C154.937134,483.239044 156.975632,480.144623 158.923370,476.996368 
	C164.592926,467.832428 169.896545,458.416046 176.015671,449.563202 
	C182.797455,439.751587 190.419891,430.525482 197.495178,420.911102 
	C204.561188,411.309387 211.009109,401.228119 218.438766,391.924652 
	C228.687973,379.090546 239.572998,366.762482 250.245712,354.268951 
	C256.823944,346.568420 263.348541,338.811096 270.205566,331.363159 
	C275.772369,325.316620 281.903015,319.792450 287.574280,313.837311 
	C290.198639,311.081604 292.007294,307.520599 294.738159,304.900391 
	C301.795929,298.128601 309.195740,291.714722 316.384399,285.077179 
	C318.889130,282.764496 321.060944,280.089111 323.584259,277.799164 
	C329.810852,272.148346 336.255157,266.735107 342.420868,261.020203 
	C349.023895,254.899979 355.318939,248.447433 361.922211,242.327484 
	C365.780609,238.751541 369.883392,235.419174 374.043427,232.192810 
	C384.238831,224.285599 394.523560,216.493332 404.787354,208.674545 
	C411.717621,203.395203 418.514618,197.921997 425.652283,192.937973 
	C438.785522,183.767380 451.983276,174.673431 465.422485,165.961426 
	C477.398590,158.197861 489.680145,150.898117 501.932129,143.569626 
	C514.041504,136.326447 526.091064,128.946381 538.517883,122.280800 
	C551.923706,115.090118 565.760803,108.706406 579.360291,101.872261 
	C584.899170,99.088806 590.139099,95.655891 595.810852,93.202515 
	C607.880249,87.981812 620.127014,83.168648 632.331970,78.265091 
	C642.095947,74.342216 651.845032,70.369736 661.709167,66.711609 
	C675.759399,61.501041 689.834839,56.337700 704.037842,51.565723 
	C716.981812,47.216770 730.079102,43.312454 743.166687,39.406147 
	C754.193909,36.114834 765.219788,32.752434 776.398438,30.051504 
	C791.578003,26.383892 806.893433,23.273861 822.168274,20.007591 
	C831.896606,17.927359 841.604492,15.672987 851.416687,14.084545 
	C862.890015,12.227206 874.472168,11.049193 885.997131,9.502238 
	C896.837280,8.047208 907.640320,6.282110 918.504944,5.053348 
	C927.336182,4.054558 936.238037,3.688110 945.095947,2.899890 
	C945.781616,2.838876 946.367676,1.659561 947.000000,1.000013 
	C997.687561,1.000000 1048.375122,1.000000 1099.402588,1.420023 
	C1100.254883,2.202974 1100.742554,2.839926 1101.283325,2.888534 
	C1113.258911,3.965011 1125.251099,4.868255 1137.217041,6.039451 
	C1144.832520,6.784850 1152.421631,7.833033 1160.002930,8.886869 
	C1166.736084,9.822809 1173.429321,11.045392 1180.162964,11.977323 
	C1190.555420,13.415643 1201.058716,14.231194 1211.350342,16.179865 
	C1228.645874,19.454691 1245.901001,23.044056 1263.007446,27.186218 
	C1280.114990,31.328722 1297.056885,36.178013 1313.996582,40.981880 
	C1322.418701,43.370323 1330.708618,46.246819 1338.995972,49.084850 
	C1358.225708,55.670166 1377.480835,62.190845 1396.592773,69.105125 
	C1404.081665,71.814384 1411.155151,75.649704 1418.523315,78.718941 
	C1430.637939,83.765244 1442.970581,88.307449 1454.961304,93.625824 
	C1464.655151,97.925476 1474.017334,102.983795 1483.461304,107.833145 
	C1499.953003,116.301514 1516.483276,124.701927 1532.818359,133.464767 
	C1540.731201,137.709564 1548.351196,142.535828 1555.905273,147.406586 
	C1572.297119,157.975876 1588.654297,168.604568 1604.844727,179.478470 
	C1615.437866,186.593063 1625.870972,193.970184 1636.087036,201.615280 
	C1645.911987,208.967529 1655.505127,216.647751 1664.951538,224.483505 
	C1681.913208,238.553299 1698.981323,252.518250 1715.445801,267.155853 
	C1727.812256,278.150116 1739.334351,290.097168 1751.171631,301.682129 
	C1757.558228,307.932526 1763.941895,314.194550 1770.102661,320.664795 
	C1778.069946,329.032532 1785.966187,337.478546 1793.609497,346.141113 
	C1801.119263,354.652405 1808.431274,363.350647 1815.543579,372.197144 
	C1823.683105,382.321320 1831.514282,392.693817 1839.465576,402.969116 
	C1845.206543,410.388275 1851.208984,417.625641 1856.591675,425.297089 
	C1866.267822,439.087372 1875.767822,453.011353 1884.959229,467.128326 
	C1892.572388,478.821533 1899.773315,490.790955 1906.902222,502.789368 
	C1913.599121,514.060852 1920.224976,525.390198 1926.401733,536.950867 
	C1933.166748,549.612732 1939.438599,562.540344 1945.818481,575.405090 
	C1951.334717,586.528137 1956.940308,597.617249 1962.058594,608.924133 
	C1966.201416,618.076416 1969.592407,627.566284 1973.482422,636.836975 
	C1975.874512,642.537537 1979.026489,647.950745 1981.057617,653.765320 
	C1987.214600,671.390625 1993.112671,689.109375 1998.875854,706.868225 
	C2003.001465,719.581238 2006.871094,732.381226 2010.629028,745.208679 
	C2014.242798,757.544128 2017.922607,769.879272 2020.917480,782.371704 
	C2024.036255,795.380798 2026.345581,808.583191 2029.055786,821.691345 
	C2031.335571,832.718079 2034.224854,843.650513 2035.873779,854.768677 
	C2038.375122,871.633545 2040.203491,888.605164 2042.006104,905.564575 
	C2043.865112,923.054138 2045.315430,940.586853 2047.070190,958.088074 
	C2047.206055,959.442932 2048.333496,960.698364 2049.000000,962.000000 
	C2049.000000,1003.020935 2049.000000,1044.041870 2048.573486,1085.432861 
	C2047.787231,1086.315674 2047.149536,1086.807007 2047.108154,1087.344238 
	C2046.034790,1101.276978 2045.148682,1115.225220 2043.949219,1129.146606 
	C2043.334473,1136.282471 2042.252075,1143.382080 2041.250610,1150.479614 
	C2039.900513,1160.047363 2038.365967,1169.589111 2037.017822,1179.157104 
	C2035.553955,1189.545898 2034.623291,1200.027710 2032.723877,1210.333252 
	C2029.794678,1226.224976 2026.613403,1242.091064 2022.848145,1257.802612 
	C2018.687866,1275.161865 2013.921875,1292.383057 2009.081665,1309.569336 
	C2006.394043,1319.112305 2003.133179,1328.500977 1999.926392,1337.889404 
	C1993.355347,1357.126587 1986.930786,1376.421387 1979.896729,1395.489990 
	C1975.074951,1408.561401 1969.437134,1421.338501 1963.952515,1434.156616 
	C1960.495239,1442.236816 1956.722656,1450.185669 1952.948853,1458.125732 
	C1950.236694,1463.832397 1947.195190,1469.382202 1944.466797,1475.081421 
	C1939.689209,1485.060425 1935.388062,1495.283936 1930.241333,1505.065186 
	C1924.681396,1515.631958 1918.468384,1525.860840 1912.377441,1536.140625 
	C1907.242676,1544.806396 1901.988159,1553.406250 1896.583740,1561.906372 
	C1887.791992,1575.733887 1879.083130,1589.625244 1869.874390,1603.173706 
	C1861.372192,1615.682617 1852.348999,1627.842407 1843.384155,1640.030151 
	C1837.016724,1648.686768 1830.568604,1657.299927 1823.790039,1665.634399 
	C1814.925537,1676.533447 1805.746826,1687.179199 1796.603882,1697.848877 
	C1793.231445,1701.784546 1789.536743,1705.442383 1786.066040,1709.296265 
	C1784.091797,1711.488525 1782.399292,1713.942017 1780.360229,1716.066895 
	C1775.098145,1721.550415 1769.617920,1726.825928 1764.401001,1732.350830 
	C1756.997437,1740.191528 1749.975220,1748.403931 1742.368286,1756.036987 
	C1736.178589,1762.247314 1729.289185,1767.754028 1722.856079,1773.729858 
	C1715.817383,1780.268188 1709.178345,1787.253052 1701.943726,1793.560181 
	C1692.596069,1801.709106 1682.836792,1809.386230 1673.244141,1817.253540 
	C1665.876587,1823.295776 1658.651489,1829.526978 1651.071533,1835.290894 
	C1643.321411,1841.184204 1635.178467,1846.558105 1627.275879,1852.254272 
	C1616.832153,1859.782471 1606.598389,1867.611206 1596.003418,1874.917603 
	C1587.573853,1880.730835 1578.766357,1886.000366 1570.073730,1891.426636 
	C1561.164795,1896.988037 1552.260986,1902.563354 1543.225586,1907.914429 
	C1535.594727,1912.433716 1527.786133,1916.654053 1520.041504,1920.980103 
	C1515.189331,1923.690430 1510.389526,1926.509888 1505.427124,1929.003784 
	C1493.276001,1935.110718 1481.074951,1941.120850 1468.832153,1947.041870 
	C1462.332520,1950.185425 1455.679932,1953.010864 1449.140015,1956.073120 
	C1441.444214,1959.676392 1433.946045,1963.749146 1426.091919,1966.956543 
	C1413.498413,1972.099487 1400.718262,1976.794678 1387.951172,1981.500366 
	C1375.023926,1986.264893 1362.100464,1991.065308 1349.022339,1995.387451 
	C1334.369995,2000.230103 1319.578735,2004.663330 1304.786621,2009.069214 
	C1291.997314,2012.878418 1279.213013,2016.770752 1266.259155,2019.943481 
	C1253.437134,2023.084106 1240.404419,2025.364136 1227.466553,2028.033569 
	C1217.872314,2030.013062 1208.335571,2032.339233 1198.676270,2033.917480 
	C1187.097900,2035.809326 1175.419189,2037.092041 1163.778809,2038.598267 
	C1152.236816,2040.091797 1140.704468,2041.678955 1129.137817,2042.952515 
	C1120.788208,2043.871948 1112.385010,2044.300659 1104.019897,2045.095825 
	C1103.292847,2045.165039 1102.670898,2046.339233 1102.000000,2047.000000 
M552.111267,282.429688 
	C546.087585,286.427002 539.985657,290.312134 534.056396,294.444977 
	C521.604248,303.124481 509.089844,311.727417 496.889618,320.751923 
	C486.003143,328.804657 475.404449,337.258026 464.874115,345.776093 
	C458.795410,350.693176 453.008362,355.985260 447.256439,361.289032 
	C432.878387,374.546906 418.523682,387.832275 404.333160,401.289673 
	C401.417114,404.055084 399.483582,407.832123 396.702942,410.769745 
	C390.456512,417.368958 383.715149,423.510040 377.622314,430.242218 
	C365.872986,443.224365 354.438477,456.491302 342.861481,469.629639 
	C339.697540,473.220245 336.236359,476.580505 333.356812,480.383575 
	C327.210754,488.500671 321.244263,496.760193 315.407318,505.103455 
	C305.843872,518.773499 296.179962,532.385193 287.051270,546.343872 
	C279.056702,558.568298 271.578339,571.141052 264.172058,583.736389 
	C257.591248,594.927917 251.302216,606.296814 245.127548,617.718872 
	C242.428391,622.711731 240.398666,628.062378 237.955032,633.198303 
	C230.884705,648.058472 223.283951,662.687866 216.783493,677.791748 
	C209.804184,694.008423 203.618454,710.580078 197.503937,727.150940 
	C193.128113,739.009705 189.170532,751.040833 185.513290,763.142273 
	C180.902054,778.400330 176.396576,793.711304 172.555145,809.175781 
	C167.677826,828.810364 161.834305,848.202576 159.766113,868.530029 
	C158.013382,885.756836 154.418701,902.788208 152.063492,919.964294 
	C150.062454,934.557495 148.192001,949.199707 147.142227,963.883118 
	C146.160904,977.609192 146.018570,991.418884 146.068649,1005.189758 
	C146.159912,1030.295288 146.618927,1055.400146 147.036774,1080.503418 
	C147.130157,1086.112915 147.403107,1091.749634 148.085770,1097.313354 
	C149.933578,1112.372925 151.906174,1127.420410 154.090790,1142.434570 
	C156.559631,1159.402100 158.909622,1176.403564 162.054581,1193.251587 
	C165.319778,1210.743652 169.025711,1228.182739 173.372681,1245.434814 
	C177.288544,1260.975952 182.092041,1276.309448 186.951157,1291.592285 
	C191.335068,1305.380493 196.095810,1319.060913 201.117905,1332.630493 
	C205.301392,1343.934204 209.867111,1355.112305 214.694839,1366.157471 
	C220.579803,1379.621826 226.861725,1392.914429 233.094330,1406.223999 
	C234.689209,1409.629761 236.862701,1412.760132 238.567978,1416.119751 
	C243.929413,1426.682861 249.054749,1437.367920 254.543045,1447.863647 
	C258.606720,1455.634888 262.936035,1463.279297 267.437256,1470.806519 
	C271.853363,1478.191528 276.601562,1485.379517 281.270020,1492.611450 
	C284.523773,1497.651855 287.880646,1502.625732 291.205902,1507.619751 
	C296.746796,1515.941528 302.174011,1524.342896 307.893799,1532.540039 
	C311.324341,1537.456299 315.339661,1541.960449 318.877808,1546.806274 
	C324.344696,1554.293335 329.405609,1562.085938 335.058655,1569.425415 
	C339.703979,1575.456665 344.979858,1581.000366 349.940887,1586.790527 
	C357.030579,1595.064697 363.910461,1603.526489 371.203827,1611.616089 
	C380.522247,1621.951782 389.971100,1632.185059 399.720276,1642.112305 
	C409.032501,1651.594482 418.528748,1660.933594 428.438019,1669.782593 
	C441.750427,1681.670532 455.358185,1693.245850 469.172302,1704.548096 
	C481.934387,1714.989746 495.132599,1724.898315 508.146637,1735.031494 
	C511.577057,1737.702515 514.895996,1740.548584 518.511841,1742.943237 
	C526.442078,1748.195190 534.599426,1753.104248 542.527161,1758.359619 
	C547.544128,1761.685425 552.127014,1765.686157 557.237183,1768.846313 
	C566.225891,1774.405029 575.425659,1779.628540 584.617493,1784.850952 
	C595.429993,1790.994263 606.251343,1797.130249 617.213135,1802.999878 
	C626.262817,1807.845703 635.530090,1812.284546 644.682617,1816.939697 
	C646.430298,1817.828491 648.010803,1819.080811 649.807922,1819.831787 
	C662.777283,1825.251343 675.752686,1830.659058 688.785156,1835.924561 
	C700.633911,1840.712036 712.460083,1845.583374 724.472656,1849.930054 
	C738.097961,1854.860229 751.810730,1859.609375 765.681885,1863.784058 
	C784.714478,1869.512085 803.893677,1874.766602 823.079712,1879.967041 
	C846.001038,1886.179688 869.458069,1889.664185 892.923401,1893.002808 
	C912.496338,1895.787354 932.048523,1898.887939 951.710999,1900.818970 
	C967.336548,1902.353516 983.111633,1902.767578 998.826355,1902.888062 
	C1017.590881,1903.031982 1036.362427,1902.365234 1055.129761,1901.989014 
	C1069.068726,1901.709473 1083.012817,1901.507080 1096.940796,1900.932739 
	C1104.998779,1900.600586 1113.067871,1899.892090 1121.063110,1898.833008 
	C1134.042114,1897.113647 1146.973022,1895.021362 1159.908203,1892.985229 
	C1171.377441,1891.179810 1182.934204,1889.734131 1194.258545,1887.247314 
	C1215.890503,1882.497192 1237.434204,1877.317139 1258.916504,1871.924927 
	C1270.903198,1868.916138 1282.765625,1865.350464 1294.545044,1861.599731 
	C1302.245728,1859.147827 1309.648804,1855.776611 1317.276733,1853.076050 
	C1322.735107,1851.143555 1328.469849,1849.962402 1333.861816,1847.878052 
	C1345.081909,1843.540894 1356.246704,1839.033325 1367.267090,1834.213623 
	C1380.241821,1828.539185 1393.074951,1822.535522 1405.900146,1816.526978 
	C1413.276123,1813.071045 1420.613770,1809.507080 1427.791748,1805.661499 
	C1437.635742,1800.387451 1447.327881,1794.828613 1457.055542,1789.339111 
	C1469.289429,1782.435059 1481.718506,1775.840210 1493.641846,1768.433228 
	C1503.901489,1762.060059 1513.574463,1754.741577 1523.497681,1747.827881 
	C1532.509521,1741.548828 1541.661133,1735.456421 1550.469482,1728.903198 
	C1558.679321,1722.795532 1566.538818,1716.214966 1574.514526,1709.795410 
	C1581.964722,1703.798584 1589.644775,1698.049438 1596.731934,1691.646973 
	C1614.225220,1675.843628 1631.472168,1659.766113 1648.711548,1643.684570 
	C1650.656006,1641.870728 1651.651001,1639.057373 1653.546387,1637.169312 
	C1659.473022,1631.265503 1665.797607,1625.755737 1671.626587,1619.761353 
	C1676.526123,1614.722900 1681.012817,1609.275269 1685.566528,1603.910400 
	C1692.470093,1595.776855 1699.342285,1587.614624 1706.098755,1579.359009 
	C1712.542969,1571.484741 1718.989380,1563.602051 1725.131348,1555.493042 
	C1732.754028,1545.429565 1740.067627,1535.131714 1747.508057,1524.930420 
	C1750.690552,1520.567017 1754.150879,1516.372803 1756.970947,1511.785645 
	C1763.162354,1501.714233 1768.920532,1491.377563 1775.052368,1481.268311 
	C1781.447021,1470.725708 1788.476440,1460.548828 1794.486572,1449.797363 
	C1800.754639,1438.584595 1806.198730,1426.907227 1811.887817,1415.375977 
	C1816.261597,1406.510620 1821.482544,1398.215576 1824.375610,1388.430054 
	C1827.546021,1377.706177 1833.720825,1367.903320 1838.103516,1357.495850 
	C1842.709961,1346.556396 1846.973022,1335.458008 1850.970825,1324.280396 
	C1855.843384,1310.657104 1860.544189,1296.959961 1864.837646,1283.145142 
	C1869.422729,1268.392578 1873.993896,1253.596313 1877.578979,1238.582153 
	C1882.241211,1219.057007 1886.264160,1199.361206 1889.927368,1179.621094 
	C1893.092163,1162.565918 1895.616821,1145.379883 1897.963501,1128.188843 
	C1899.979614,1113.418945 1901.852783,1098.594238 1902.853516,1083.730957 
	C1903.844727,1069.009766 1903.931030,1054.209717 1903.926880,1039.444458 
	C1903.922607,1024.172607 1903.459106,1008.896912 1902.962891,993.630554 
	C1902.452393,977.925049 1901.862427,962.216553 1900.920410,946.532593 
	C1900.280273,935.875427 1899.365356,925.203186 1897.879883,914.635132 
	C1895.192261,895.515564 1892.526123,876.364136 1888.847656,857.420837 
	C1885.054443,837.886841 1880.239136,818.542664 1875.523193,799.200317 
	C1873.297729,790.072754 1870.211548,781.157166 1867.606445,772.119263 
	C1865.956787,766.396301 1864.812256,760.506958 1862.852295,754.897949 
	C1857.381958,739.242065 1851.755249,723.636475 1845.893799,708.123047 
	C1842.216431,698.389771 1838.135132,688.801575 1833.988159,679.255554 
	C1830.933594,672.224060 1827.480225,665.365784 1824.203369,658.430969 
	C1818.300293,645.937683 1812.647217,633.318054 1806.417603,620.989868 
	C1800.947388,610.164429 1794.914673,599.618469 1788.969849,589.039307 
	C1785.014282,582.000122 1780.912231,575.034546 1776.631714,568.188538 
	C1770.856812,558.952209 1764.810303,549.886169 1758.949707,540.702820 
	C1753.834717,532.687866 1749.031006,524.465332 1743.689087,516.606873 
	C1739.068237,509.809143 1733.978027,503.321228 1728.924561,496.829193 
	C1723.276245,489.572662 1717.437744,482.464233 1711.678711,475.294006 
	C1705.066162,467.061310 1698.756714,458.559418 1691.756470,450.670624 
	C1683.283447,441.122040 1674.305542,432.014679 1665.396729,422.861725 
	C1656.721680,413.948730 1647.938354,405.137573 1639.057373,396.429688 
	C1627.524536,385.121613 1615.925903,373.878052 1604.202881,362.767944 
	C1597.922729,356.816132 1591.535889,350.937836 1584.808716,345.507660 
	C1577.522461,339.626221 1569.694946,334.421021 1562.264771,328.711029 
	C1552.174683,320.956848 1542.467407,312.685852 1532.166992,305.229004 
	C1522.749878,298.411499 1512.875488,292.199921 1502.996582,286.052582 
	C1491.058838,278.624176 1479.065674,271.256165 1466.803467,264.384949 
	C1450.495361,255.246521 1433.987183,246.454239 1417.406372,237.817657 
	C1406.266357,232.015076 1394.866577,226.709122 1383.553589,221.241531 
	C1377.841797,218.480988 1372.201050,215.498596 1366.289795,213.240417 
	C1352.844238,208.104019 1339.266479,203.311005 1325.713867,198.458130 
	C1313.470337,194.073959 1301.306152,189.416916 1288.893799,185.567810 
	C1273.806763,180.889252 1258.566650,176.657196 1243.264771,172.730316 
	C1224.019165,167.791412 1205.025635,161.861526 1185.076294,159.756042 
	C1171.115723,158.282608 1157.355469,155.005402 1143.436035,153.022964 
	C1127.380737,150.736313 1111.289795,148.498627 1095.138428,147.144745 
	C1079.484131,145.832535 1063.736938,145.231628 1048.024536,145.113098 
	C1029.089722,144.970261 1010.147766,145.624435 991.210510,146.012207 
	C978.603516,146.270355 965.999451,146.667465 953.393921,146.997955 
	C952.061707,147.032898 950.711060,146.904465 949.398682,147.077164 
	C934.612366,149.023041 919.819824,150.927734 905.053040,153.014221 
	C889.066772,155.273041 872.984680,157.099197 857.164978,160.229111 
	C837.587585,164.102478 818.140747,168.751190 798.818787,173.763763 
	C782.964417,177.876755 767.295227,182.763245 751.697815,187.784882 
	C741.982239,190.912857 732.545532,194.910706 722.996887,198.552750 
	C708.862183,203.943924 694.654663,209.157806 680.644531,214.856125 
	C672.810669,218.042343 665.316895,222.063019 657.662170,225.691498 
	C645.612488,231.403229 633.503723,236.993851 621.526978,242.854401 
	C616.240356,245.441330 611.234741,248.598389 606.068604,251.436600 
	C595.835266,257.058624 585.496216,262.493835 575.359436,268.283966 
	C567.707336,272.654877 560.302063,277.457825 552.111267,282.429688 
z"/>
<path fill="#000000" opacity="0.000000" stroke="none" 
	d="
M1102.468628,2047.000000 
	C1102.670898,2046.339233 1103.292847,2045.165039 1104.019897,2045.095825 
	C1112.385010,2044.300659 1120.788208,2043.871948 1129.137817,2042.952515 
	C1140.704468,2041.678955 1152.236816,2040.091797 1163.778809,2038.598267 
	C1175.419189,2037.092041 1187.097900,2035.809326 1198.676270,2033.917480 
	C1208.335571,2032.339233 1217.872314,2030.013062 1227.466553,2028.033569 
	C1240.404419,2025.364136 1253.437134,2023.084106 1266.259155,2019.943481 
	C1279.213013,2016.770752 1291.997314,2012.878418 1304.786621,2009.069214 
	C1319.578735,2004.663330 1334.369995,2000.230103 1349.022339,1995.387451 
	C1362.100464,1991.065308 1375.023926,1986.264893 1387.951172,1981.500366 
	C1400.718262,1976.794678 1413.498413,1972.099487 1426.091919,1966.956543 
	C1433.946045,1963.749146 1441.444214,1959.676392 1449.140015,1956.073120 
	C1455.679932,1953.010864 1462.332520,1950.185425 1468.832153,1947.041870 
	C1481.074951,1941.120850 1493.276001,1935.110718 1505.427124,1929.003784 
	C1510.389526,1926.509888 1515.189331,1923.690430 1520.041504,1920.980103 
	C1527.786133,1916.654053 1535.594727,1912.433716 1543.225586,1907.914429 
	C1552.260986,1902.563354 1561.164795,1896.988037 1570.073730,1891.426636 
	C1578.766357,1886.000366 1587.573853,1880.730835 1596.003418,1874.917603 
	C1606.598389,1867.611206 1616.832153,1859.782471 1627.275879,1852.254272 
	C1635.178467,1846.558105 1643.321411,1841.184204 1651.071533,1835.290894 
	C1658.651489,1829.526978 1665.876587,1823.295776 1673.244141,1817.253540 
	C1682.836792,1809.386230 1692.596069,1801.709106 1701.943726,1793.560181 
	C1709.178345,1787.253052 1715.817383,1780.268188 1722.856079,1773.729858 
	C1729.289185,1767.754028 1736.178589,1762.247314 1742.368286,1756.036987 
	C1749.975220,1748.403931 1756.997437,1740.191528 1764.401001,1732.350830 
	C1769.617920,1726.825928 1775.098145,1721.550415 1780.360229,1716.066895 
	C1782.399292,1713.942017 1784.091797,1711.488525 1786.066040,1709.296265 
	C1789.536743,1705.442383 1793.231445,1701.784546 1796.603882,1697.848877 
	C1805.746826,1687.179199 1814.925537,1676.533447 1823.790039,1665.634399 
	C1830.568604,1657.299927 1837.016724,1648.686768 1843.384155,1640.030151 
	C1852.348999,1627.842407 1861.372192,1615.682617 1869.874390,1603.173706 
	C1879.083130,1589.625244 1887.791992,1575.733887 1896.583740,1561.906372 
	C1901.988159,1553.406250 1907.242676,1544.806396 1912.377441,1536.140625 
	C1918.468384,1525.860840 1924.681396,1515.631958 1930.241333,1505.065186 
	C1935.388062,1495.283936 1939.689209,1485.060425 1944.466797,1475.081421 
	C1947.195190,1469.382202 1950.236694,1463.832397 1952.948853,1458.125732 
	C1956.722656,1450.185669 1960.495239,1442.236816 1963.952515,1434.156616 
	C1969.437134,1421.338501 1975.074951,1408.561401 1979.896729,1395.489990 
	C1986.930786,1376.421387 1993.355347,1357.126587 1999.926392,1337.889404 
	C2003.133179,1328.500977 2006.394043,1319.112305 2009.081665,1309.569336 
	C2013.921875,1292.383057 2018.687866,1275.161865 2022.848145,1257.802612 
	C2026.613403,1242.091064 2029.794678,1226.224976 2032.723877,1210.333252 
	C2034.623291,1200.027710 2035.553955,1189.545898 2037.017822,1179.157104 
	C2038.365967,1169.589111 2039.900513,1160.047363 2041.250610,1150.479614 
	C2042.252075,1143.382080 2043.334473,1136.282471 2043.949219,1129.146606 
	C2045.148682,1115.225220 2046.034790,1101.276978 2047.108154,1087.344238 
	C2047.149536,1086.807007 2047.787231,1086.315674 2048.573486,1085.901489 
	C2049.000000,1406.259888 2049.000000,1726.519775 2049.000000,2047.000000 
	C1733.645752,2047.000000 1418.291504,2047.000000 1102.468628,2047.000000 
z"/>
<path fill="#000000" opacity="0.000000" stroke="none" 
	d="
M1.000024,1086.468628 
	C1.666122,1087.146729 2.829591,1088.254761 2.922405,1089.446167 
	C4.017500,1103.504639 4.404239,1117.640625 6.067635,1131.626587 
	C8.170898,1149.311035 12.116949,1166.798950 13.746839,1184.511475 
	C15.889407,1207.795776 21.924797,1230.200684 26.934813,1252.856079 
	C29.821688,1265.910522 32.721409,1278.974731 36.147144,1291.893677 
	C39.843128,1305.831665 43.806503,1319.720825 48.294785,1333.421021 
	C53.927673,1350.615112 60.037968,1367.659912 66.280731,1384.644531 
	C70.100540,1395.036987 74.555016,1405.196045 78.725838,1415.459473 
	C81.636063,1422.620605 84.335175,1429.877075 87.508484,1436.919678 
	C92.632408,1448.291260 97.973976,1459.567749 103.402580,1470.797974 
	C108.020439,1480.350708 112.764725,1489.847168 117.686050,1499.246582 
	C122.344452,1508.144165 127.192131,1516.948120 132.168549,1525.672363 
	C136.494949,1533.257080 141.052963,1540.712402 145.623322,1548.154541 
	C153.328827,1560.701294 160.978790,1573.286255 168.924622,1585.680420 
	C176.772720,1597.922119 184.761581,1610.084351 193.065216,1622.019531 
	C198.616852,1629.999268 204.849792,1637.503784 210.736053,1645.252686 
	C218.296158,1655.204956 225.640579,1665.327148 233.414017,1675.109131 
	C238.282715,1681.235962 243.802124,1686.843140 248.970871,1692.734985 
	C255.032959,1699.645020 260.844482,1706.785400 267.109650,1713.504150 
	C273.463074,1720.317383 280.369141,1726.612915 286.789948,1733.366333 
	C293.023865,1739.923096 298.893127,1746.825073 305.044769,1753.462158 
	C306.819092,1755.376465 309.094879,1756.815430 311.005066,1758.616211 
	C318.539734,1765.719360 325.874695,1773.041138 333.556335,1779.979980 
	C344.455780,1789.825439 355.462311,1799.562012 366.672638,1809.050293 
	C376.951263,1817.750122 387.411072,1826.253296 398.076691,1834.472534 
	C405.355865,1840.081909 413.198456,1844.953857 420.658417,1850.336670 
	C429.932220,1857.028442 438.888458,1864.173706 448.316223,1870.635254 
	C459.272644,1878.144531 470.598022,1885.114868 481.748260,1892.342285 
	C484.626434,1894.207886 487.376892,1896.278931 490.310425,1898.049316 
	C497.948456,1902.658691 505.550262,1907.344604 513.360229,1911.648438 
	C524.276917,1917.664551 535.373779,1923.353394 546.385376,1929.197754 
	C558.766663,1935.768921 570.972656,1942.697998 583.563904,1948.837769 
	C595.067810,1954.447388 606.954529,1959.280273 618.727600,1964.327148 
	C630.350464,1969.309814 641.883118,1974.564453 653.740173,1978.925171 
	C672.836670,1985.948242 692.021057,1992.802368 711.436035,1998.871338 
	C735.532654,2006.403931 759.748230,2013.665527 784.200867,2019.915405 
	C804.574463,2025.122681 825.312317,2028.976440 845.990173,2032.894653 
	C857.877747,2035.147339 869.967773,2036.329102 881.965027,2038.005127 
	C893.644958,2039.636963 905.301636,2041.461182 917.008728,2042.864990 
	C925.346313,2043.864868 933.754333,2044.268921 942.122253,2045.033203 
	C943.817261,2045.187988 945.473572,2045.766235 947.073853,2046.574707 
	C631.739014,2047.000000 316.477997,2047.000000 1.000000,2047.000000 
	C1.000000,1726.979126 1.000000,1406.958130 1.000024,1086.468628 
z"/>
<path fill="#000000" opacity="0.000000" stroke="none" 
	d="
M2049.000000,961.531372 
	C2048.333496,960.698364 2047.206055,959.442932 2047.070190,958.088074 
	C2045.315430,940.586853 2043.865112,923.054138 2042.006104,905.564575 
	C2040.203491,888.605164 2038.375122,871.633545 2035.873779,854.768677 
	C2034.224854,843.650513 2031.335571,832.718079 2029.055786,821.691345 
	C2026.345581,808.583191 2024.036255,795.380798 2020.917480,782.371704 
	C2017.922607,769.879272 2014.242798,757.544128 2010.629028,745.208679 
	C2006.871094,732.381226 2003.001465,719.581238 1998.875854,706.868225 
	C1993.112671,689.109375 1987.214600,671.390625 1981.057617,653.765320 
	C1979.026489,647.950745 1975.874512,642.537537 1973.482422,636.836975 
	C1969.592407,627.566284 1966.201416,618.076416 1962.058594,608.924133 
	C1956.940308,597.617249 1951.334717,586.528137 1945.818481,575.405090 
	C1939.438599,562.540344 1933.166748,549.612732 1926.401733,536.950867 
	C1920.224976,525.390198 1913.599121,514.060852 1906.902222,502.789368 
	C1899.773315,490.790955 1892.572388,478.821533 1884.959229,467.128326 
	C1875.767822,453.011353 1866.267822,439.087372 1856.591675,425.297089 
	C1851.208984,417.625641 1845.206543,410.388275 1839.465576,402.969116 
	C1831.514282,392.693817 1823.683105,382.321320 1815.543579,372.197144 
	C1808.431274,363.350647 1801.119263,354.652405 1793.609497,346.141113 
	C1785.966187,337.478546 1778.069946,329.032532 1770.102661,320.664795 
	C1763.941895,314.194550 1757.558228,307.932526 1751.171631,301.682129 
	C1739.334351,290.097168 1727.812256,278.150116 1715.445801,267.155853 
	C1698.981323,252.518250 1681.913208,238.553299 1664.951538,224.483505 
	C1655.505127,216.647751 1645.911987,208.967529 1636.087036,201.615280 
	C1625.870972,193.970184 1615.437866,186.593063 1604.844727,179.478470 
	C1588.654297,168.604568 1572.297119,157.975876 1555.905273,147.406586 
	C1548.351196,142.535828 1540.731201,137.709564 1532.818359,133.464767 
	C1516.483276,124.701927 1499.953003,116.301514 1483.461304,107.833145 
	C1474.017334,102.983795 1464.655151,97.925476 1454.961304,93.625824 
	C1442.970581,88.307449 1430.637939,83.765244 1418.523315,78.718941 
	C1411.155151,75.649704 1404.081665,71.814384 1396.592773,69.105125 
	C1377.480835,62.190845 1358.225708,55.670166 1338.995972,49.084850 
	C1330.708618,46.246819 1322.418701,43.370323 1313.996582,40.981880 
	C1297.056885,36.178013 1280.114990,31.328722 1263.007446,27.186218 
	C1245.901001,23.044056 1228.645874,19.454691 1211.350342,16.179865 
	C1201.058716,14.231194 1190.555420,13.415643 1180.162964,11.977323 
	C1173.429321,11.045392 1166.736084,9.822809 1160.002930,8.886869 
	C1152.421631,7.833033 1144.832520,6.784850 1137.217041,6.039451 
	C1125.251099,4.868255 1113.258911,3.965011 1101.283325,2.888534 
	C1100.742554,2.839926 1100.254883,2.202974 1099.871216,1.420023 
	C1416.260864,1.000000 1732.521851,1.000000 2049.000000,1.000000 
	C2049.000000,321.020874 2049.000000,641.041748 2049.000000,961.531372 
z"/>
<path fill="#000000" opacity="0.000000" stroke="none" 
	d="
M946.531372,1.000013 
	C946.367676,1.659561 945.781616,2.838876 945.095947,2.899890 
	C936.238037,3.688110 927.336182,4.054558 918.504944,5.053348 
	C907.640320,6.282110 896.837280,8.047208 885.997131,9.502238 
	C874.472168,11.049193 862.890015,12.227206 851.416687,14.084545 
	C841.604492,15.672987 831.896606,17.927359 822.168274,20.007591 
	C806.893433,23.273861 791.578003,26.383892 776.398438,30.051504 
	C765.219788,32.752434 754.193909,36.114834 743.166687,39.406147 
	C730.079102,43.312454 716.981812,47.216770 704.037842,51.565723 
	C689.834839,56.337700 675.759399,61.501041 661.709167,66.711609 
	C651.845032,70.369736 642.095947,74.342216 632.331970,78.265091 
	C620.127014,83.168648 607.880249,87.981812 595.810852,93.202515 
	C590.139099,95.655891 584.899170,99.088806 579.360291,101.872261 
	C565.760803,108.706406 551.923706,115.090118 538.517883,122.280800 
	C526.091064,128.946381 514.041504,136.326447 501.932129,143.569626 
	C489.680145,150.898117 477.398590,158.197861 465.422485,165.961426 
	C451.983276,174.673431 438.785522,183.767380 425.652283,192.937973 
	C418.514618,197.921997 411.717621,203.395203 404.787354,208.674545 
	C394.523560,216.493332 384.238831,224.285599 374.043427,232.192810 
	C369.883392,235.419174 365.780609,238.751541 361.922211,242.327484 
	C355.318939,248.447433 349.023895,254.899979 342.420868,261.020203 
	C336.255157,266.735107 329.810852,272.148346 323.584259,277.799164 
	C321.060944,280.089111 318.889130,282.764496 316.384399,285.077179 
	C309.195740,291.714722 301.795929,298.128601 294.738159,304.900391 
	C292.007294,307.520599 290.198639,311.081604 287.574280,313.837311 
	C281.903015,319.792450 275.772369,325.316620 270.205566,331.363159 
	C263.348541,338.811096 256.823944,346.568420 250.245712,354.268951 
	C239.572998,366.762482 228.687973,379.090546 218.438766,391.924652 
	C211.009109,401.228119 204.561188,411.309387 197.495178,420.911102 
	C190.419891,430.525482 182.797455,439.751587 176.015671,449.563202 
	C169.896545,458.416046 164.592926,467.832428 158.923370,476.996368 
	C156.975632,480.144623 154.937134,483.239044 153.063461,486.430450 
	C145.362656,499.547058 137.746780,512.713684 130.021652,525.815857 
	C126.543396,531.715149 122.587097,537.349731 119.378273,543.386536 
	C115.396400,550.877625 112.031044,558.693787 108.278297,566.309937 
	C103.338531,576.335083 98.137589,586.233704 93.317314,596.315002 
	C89.128532,605.075623 84.977043,613.881958 81.412437,622.906433 
	C76.288940,635.877502 71.744583,649.076477 66.893242,662.156006 
	C62.953766,672.777039 58.535496,683.238098 55.027184,693.997559 
	C49.407959,711.230774 44.243301,728.616089 39.121338,746.006287 
	C35.438789,758.509277 31.657743,771.015930 28.780846,783.715881 
	C24.451632,802.826904 20.515673,822.044373 17.078493,841.335205 
	C13.637609,860.647095 10.802989,880.075439 8.116633,899.509949 
	C6.636640,910.217041 5.938358,921.035889 5.017142,931.815430 
	C4.237433,940.939270 3.665294,950.080750 2.926449,959.208374 
	C2.869346,959.913696 2.219988,960.571106 1.422956,961.125366 
	C1.000000,641.073425 1.000000,321.146881 1.000000,1.000000 
	C316.020874,1.000000 631.041748,1.000000 946.531372,1.000013 
z"/>
<path fill="#000000" opacity="0.000000" stroke="none" 
	d="
M552.449097,282.249084 
	C560.302063,277.457825 567.707336,272.654877 575.359436,268.283966 
	C585.496216,262.493835 595.835266,257.058624 606.068604,251.436600 
	C611.234741,248.598389 616.240356,245.441330 621.526978,242.854401 
	C633.503723,236.993851 645.612488,231.403229 657.662170,225.691498 
	C665.316895,222.063019 672.810669,218.042343 680.644531,214.856125 
	C694.654663,209.157806 708.862183,203.943924 722.996887,198.552750 
	C732.545532,194.910706 741.982239,190.912857 751.697815,187.784882 
	C767.295227,182.763245 782.964417,177.876755 798.818787,173.763763 
	C818.140747,168.751190 837.587585,164.102478 857.164978,160.229111 
	C872.984680,157.099197 889.066772,155.273041 905.053040,153.014221 
	C919.819824,150.927734 934.612366,149.023041 949.398682,147.077164 
	C950.711060,146.904465 952.061707,147.032898 953.393921,146.997955 
	C965.999451,146.667465 978.603516,146.270355 991.210510,146.012207 
	C1010.147766,145.624435 1029.089722,144.970261 1048.024536,145.113098 
	C1063.736938,145.231628 1079.484131,145.832535 1095.138428,147.144745 
	C1111.289795,148.498627 1127.380737,150.736313 1143.436035,153.022964 
	C1157.355469,155.005402 1171.115723,158.282608 1185.076294,159.756042 
	C1205.025635,161.861526 1224.019165,167.791412 1243.264771,172.730316 
	C1258.566650,176.657196 1273.806763,180.889252 1288.893799,185.567810 
	C1301.306152,189.416916 1313.470337,194.073959 1325.713867,198.458130 
	C1339.266479,203.311005 1352.844238,208.104019 1366.289795,213.240417 
	C1372.201050,215.498596 1377.841797,218.480988 1383.553589,221.241531 
	C1394.866577,226.709122 1406.266357,232.015076 1417.406372,237.817657 
	C1433.987183,246.454239 1450.495361,255.246521 1466.803467,264.384949 
	C1479.065674,271.256165 1491.058838,278.624176 1502.996582,286.052582 
	C1512.875488,292.199921 1522.749878,298.411499 1532.166992,305.229004 
	C1542.467407,312.685852 1552.174683,320.956848 1562.264771,328.711029 
	C1569.694946,334.421021 1577.522461,339.626221 1584.808716,345.507660 
	C1591.535889,350.937836 1597.922729,356.816132 1604.202881,362.767944 
	C1615.925903,373.878052 1627.524536,385.121613 1639.057373,396.429688 
	C1647.938354,405.137573 1656.721680,413.948730 1665.396729,422.861725 
	C1674.305542,432.014679 1683.283447,441.122040 1691.756470,450.670624 
	C1698.756714,458.559418 1705.066162,467.061310 1711.678711,475.294006 
	C1717.437744,482.464233 1723.276245,489.572662 1728.924561,496.829193 
	C1733.978027,503.321228 1739.068237,509.809143 1743.689087,516.606873 
	C1749.031006,524.465332 1753.834717,532.687866 1758.949707,540.702820 
	C1764.810303,549.886169 1770.856812,558.952209 1776.631714,568.188538 
	C1780.912231,575.034546 1785.014282,582.000122 1788.969849,589.039307 
	C1794.914673,599.618469 1800.947388,610.164429 1806.417603,620.989868 
	C1812.647217,633.318054 1818.300293,645.937683 1824.203369,658.430969 
	C1827.480225,665.365784 1830.933594,672.224060 1833.988159,679.255554 
	C1838.135132,688.801575 1842.216431,698.389771 1845.893799,708.123047 
	C1851.755249,723.636475 1857.381958,739.242065 1862.852295,754.897949 
	C1864.812256,760.506958 1865.956787,766.396301 1867.606445,772.119263 
	C1870.211548,781.157166 1873.297729,790.072754 1875.523193,799.200317 
	C1880.239136,818.542664 1885.054443,837.886841 1888.847656,857.420837 
	C1892.526123,876.364136 1895.192261,895.515564 1897.879883,914.635132 
	C1899.365356,925.203186 1900.280273,935.875427 1900.920410,946.532593 
	C1901.862427,962.216553 1902.452393,977.925049 1902.962891,993.630554 
	C1903.459106,1008.896912 1903.922607,1024.172607 1903.926880,1039.444458 
	C1903.931030,1054.209717 1903.844727,1069.009766 1902.853516,1083.730957 
	C1901.852783,1098.594238 1899.979614,1113.418945 1897.963501,1128.188843 
	C1895.616821,1145.379883 1893.092163,1162.565918 1889.927368,1179.621094 
	C1886.264160,1199.361206 1882.241211,1219.057007 1877.578979,1238.582153 
	C1873.993896,1253.596313 1869.422729,1268.392578 1864.837646,1283.145142 
	C1860.544189,1296.959961 1855.843384,1310.657104 1850.970825,1324.280396 
	C1846.973022,1335.458008 1842.709961,1346.556396 1838.103516,1357.495850 
	C1833.720825,1367.903320 1827.546021,1377.706177 1824.375610,1388.430054 
	C1821.482544,1398.215576 1816.261597,1406.510620 1811.887817,1415.375977 
	C1806.198730,1426.907227 1800.754639,1438.584595 1794.486572,1449.797363 
	C1788.476440,1460.548828 1781.447021,1470.725708 1775.052368,1481.268311 
	C1768.920532,1491.377563 1763.162354,1501.714233 1756.970947,1511.785645 
	C1754.150879,1516.372803 1750.690552,1520.567017 1747.508057,1524.930420 
	C1740.067627,1535.131714 1732.754028,1545.429565 1725.131348,1555.493042 
	C1718.989380,1563.602051 1712.542969,1571.484741 1706.098755,1579.359009 
	C1699.342285,1587.614624 1692.470093,1595.776855 1685.566528,1603.910400 
	C1681.012817,1609.275269 1676.526123,1614.722900 1671.626587,1619.761353 
	C1665.797607,1625.755737 1659.473022,1631.265503 1653.546387,1637.169312 
	C1651.651001,1639.057373 1650.656006,1641.870728 1648.711548,1643.684570 
	C1631.472168,1659.766113 1614.225220,1675.843628 1596.731934,1691.646973 
	C1589.644775,1698.049438 1581.964722,1703.798584 1574.514526,1709.795410 
	C1566.538818,1716.214966 1558.679321,1722.795532 1550.469482,1728.903198 
	C1541.661133,1735.456421 1532.509521,1741.548828 1523.497681,1747.827881 
	C1513.574463,1754.741577 1503.901489,1762.060059 1493.641846,1768.433228 
	C1481.718506,1775.840210 1469.289429,1782.435059 1457.055542,1789.339111 
	C1447.327881,1794.828613 1437.635742,1800.387451 1427.791748,1805.661499 
	C1420.613770,1809.507080 1413.276123,1813.071045 1405.900146,1816.526978 
	C1393.074951,1822.535522 1380.241821,1828.539185 1367.267090,1834.213623 
	C1356.246704,1839.033325 1345.081909,1843.540894 1333.861816,1847.878052 
	C1328.469849,1849.962402 1322.735107,1851.143555 1317.276733,1853.076050 
	C1309.648804,1855.776611 1302.245728,1859.147827 1294.545044,1861.599731 
	C1282.765625,1865.350464 1270.903198,1868.916138 1258.916504,1871.924927 
	C1237.434204,1877.317139 1215.890503,1882.497192 1194.258545,1887.247314 
	C1182.934204,1889.734131 1171.377441,1891.179810 1159.908203,1892.985229 
	C1146.973022,1895.021362 1134.042114,1897.113647 1121.063110,1898.833008 
	C1113.067871,1899.892090 1104.998779,1900.600586 1096.940796,1900.932739 
	C1083.012817,1901.507080 1069.068726,1901.709473 1055.129761,1901.989014 
	C1036.362427,1902.365234 1017.590881,1903.031982 998.826355,1902.888062 
	C983.111633,1902.767578 967.336548,1902.353516 951.710999,1900.818970 
	C932.048523,1898.887939 912.496338,1895.787354 892.923401,1893.002808 
	C869.458069,1889.664185 846.001038,1886.179688 823.079712,1879.967041 
	C803.893677,1874.766602 784.714478,1869.512085 765.681885,1863.784058 
	C751.810730,1859.609375 738.097961,1854.860229 724.472656,1849.930054 
	C712.460083,1845.583374 700.633911,1840.712036 688.785156,1835.924561 
	C675.752686,1830.659058 662.777283,1825.251343 649.807922,1819.831787 
	C648.010803,1819.080811 646.430298,1817.828491 644.682617,1816.939697 
	C635.530090,1812.284546 626.262817,1807.845703 617.213135,1802.999878 
	C606.251343,1797.130249 595.429993,1790.994263 584.617493,1784.850952 
	C575.425659,1779.628540 566.225891,1774.405029 557.237183,1768.846313 
	C552.127014,1765.686157 547.544128,1761.685425 542.527161,1758.359619 
	C534.599426,1753.104248 526.442078,1748.195190 518.511841,1742.943237 
	C514.895996,1740.548584 511.577057,1737.702515 508.146637,1735.031494 
	C495.132599,1724.898315 481.934387,1714.989746 469.172302,1704.548096 
	C455.358185,1693.245850 441.750427,1681.670532 428.438019,1669.782593 
	C418.528748,1660.933594 409.032501,1651.594482 399.720276,1642.112305 
	C389.971100,1632.185059 380.522247,1621.951782 371.203827,1611.616089 
	C363.910461,1603.526489 357.030579,1595.064697 349.940887,1586.790527 
	C344.979858,1581.000366 339.703979,1575.456665 335.058655,1569.425415 
	C329.405609,1562.085938 324.344696,1554.293335 318.877808,1546.806274 
	C315.339661,1541.960449 311.324341,1537.456299 307.893799,1532.540039 
	C302.174011,1524.342896 296.746796,1515.941528 291.205902,1507.619751 
	C287.880646,1502.625732 284.523773,1497.651855 281.270020,1492.611450 
	C276.601562,1485.379517 271.853363,1478.191528 267.437256,1470.806519 
	C262.936035,1463.279297 258.606720,1455.634888 254.543045,1447.863647 
	C249.054749,1437.367920 243.929413,1426.682861 238.567978,1416.119751 
	C236.862701,1412.760132 234.689209,1409.629761 233.094330,1406.223999 
	C226.861725,1392.914429 220.579803,1379.621826 214.694839,1366.157471 
	C209.867111,1355.112305 205.301392,1343.934204 201.117905,1332.630493 
	C196.095810,1319.060913 191.335068,1305.380493 186.951157,1291.592285 
	C182.092041,1276.309448 177.288544,1260.975952 173.372681,1245.434814 
	C169.025711,1228.182739 165.319778,1210.743652 162.054581,1193.251587 
	C158.909622,1176.403564 156.559631,1159.402100 154.090790,1142.434570 
	C151.906174,1127.420410 149.933578,1112.372925 148.085770,1097.313354 
	C147.403107,1091.749634 147.130157,1086.112915 147.036774,1080.503418 
	C146.618927,1055.400146 146.159912,1030.295288 146.068649,1005.189758 
	C146.018570,991.418884 146.160904,977.609192 147.142227,963.883118 
	C148.192001,949.199707 150.062454,934.557495 152.063492,919.964294 
	C154.418701,902.788208 158.013382,885.756836 159.766113,868.530029 
	C161.834305,848.202576 167.677826,828.810364 172.555145,809.175781 
	C176.396576,793.711304 180.902054,778.400330 185.513290,763.142273 
	C189.170532,751.040833 193.128113,739.009705 197.503937,727.150940 
	C203.618454,710.580078 209.804184,694.008423 216.783493,677.791748 
	C223.283951,662.687866 230.884705,648.058472 237.955032,633.198303 
	C240.398666,628.062378 242.428391,622.711731 245.127548,617.718872 
	C251.302216,606.296814 257.591248,594.927917 264.172058,583.736389 
	C271.578339,571.141052 279.056702,558.568298 287.051270,546.343872 
	C296.179962,532.385193 305.843872,518.773499 315.407318,505.103455 
	C321.244263,496.760193 327.210754,488.500671 333.356812,480.383575 
	C336.236359,476.580505 339.697540,473.220245 342.861481,469.629639 
	C354.438477,456.491302 365.872986,443.224365 377.622314,430.242218 
	C383.715149,423.510040 390.456512,417.368958 396.702942,410.769745 
	C399.483582,407.832123 401.417114,404.055084 404.333160,401.289673 
	C418.523682,387.832275 432.878387,374.546906 447.256439,361.289032 
	C453.008362,355.985260 458.795410,350.693176 464.874115,345.776093 
	C475.404449,337.258026 486.003143,328.804657 496.889618,320.751923 
	C509.089844,311.727417 521.604248,303.124481 534.056396,294.444977 
	C539.985657,290.312134 546.087585,286.427002 552.449097,282.249084 
M1316.018066,1212.523315 
	C1253.288696,1149.651611 1190.559326,1086.779785 1127.606812,1023.684387 
	C1136.935669,1014.427307 1145.928101,1005.530579 1154.890137,996.603271 
	C1163.737549,987.790161 1172.554321,978.946045 1181.384521,970.115784 
	C1190.450317,961.050049 1199.516113,951.984558 1208.581787,942.918884 
	C1217.176392,934.324280 1225.770630,925.729492 1234.365234,917.135010 
	C1243.431030,908.069336 1252.496826,899.003479 1261.562988,889.937927 
	C1270.864746,880.636780 1280.143555,871.312439 1289.487793,862.054016 
	C1291.467529,860.092468 1293.821899,858.504944 1295.771484,856.517456 
	C1303.265381,848.877991 1310.571045,841.052002 1318.131348,833.479858 
	C1323.688354,827.914001 1329.672119,822.773621 1335.215332,817.194946 
	C1342.756836,809.605347 1350.000000,801.720154 1357.481445,794.069641 
	C1365.098633,786.280396 1372.294434,778.607300 1376.427246,767.887512 
	C1381.521240,754.674866 1384.774658,741.600464 1381.872925,727.678406 
	C1380.159180,719.455200 1378.727539,710.555176 1374.474976,703.608948 
	C1365.906006,689.612244 1354.775024,678.042297 1338.475098,671.839539 
	C1323.635376,666.192444 1308.899780,664.077393 1293.739746,668.189697 
	C1285.454346,670.437134 1276.508423,673.078918 1269.942139,678.208069 
	C1258.555664,687.102356 1248.726929,698.006226 1238.355591,708.180298 
	C1229.322388,717.041748 1220.442261,726.059326 1211.494141,735.007507 
	C1203.017212,743.484436 1194.539917,751.961060 1186.062500,760.437500 
	C1176.525513,769.973389 1166.988159,779.508728 1157.451416,789.044678 
	C1149.328491,797.166809 1141.206177,805.289490 1133.083862,813.412292 
	C1123.900635,822.596191 1114.717896,831.780701 1105.534424,840.964478 
	C1097.293701,849.205505 1089.053101,857.446533 1080.811401,865.686462 
	C1071.037842,875.457764 1061.269287,885.234131 1051.484985,894.994629 
	C1048.950317,897.523254 1046.394043,900.031555 1043.797607,902.496521 
	C1037.384766,908.584900 1030.942749,914.642639 1024.246582,920.963623 
	C1019.927490,916.574463 1015.461914,911.988892 1010.944153,907.455322 
	C1001.541138,898.019592 992.110352,888.611450 982.691162,879.191833 
	C974.568054,871.068298 966.445251,862.944458 958.322144,854.820923 
	C949.374451,845.872742 940.426880,836.924438 931.478882,827.976624 
	C922.885071,819.382874 914.290710,810.789673 905.696594,802.196228 
	C896.276855,792.777100 886.856384,783.358704 877.437927,773.938354 
	C869.433838,765.932739 861.433594,757.923218 853.428955,749.918152 
	C843.657471,740.146240 833.856750,730.403259 824.129028,720.588013 
	C821.815369,718.253601 819.875732,715.544922 817.532959,713.243591 
	C809.898254,705.743591 802.323059,698.169067 794.402649,690.978271 
	C788.253357,685.395447 781.722656,680.212830 775.135681,675.145752 
	C773.433472,673.836243 770.691284,673.964844 768.754517,672.858948 
	C760.790527,668.311584 752.145264,666.366150 743.135620,666.039001 
	C724.488953,665.361816 707.570923,670.720032 693.211853,682.543091 
	C681.685852,692.033447 673.464233,703.993225 669.834106,718.899170 
	C667.268127,729.435547 665.635681,740.023254 668.162537,750.594604 
	C670.129883,758.825317 672.327271,767.387329 676.474182,774.626892 
	C684.076721,787.898987 695.958496,797.772644 706.827698,808.376404 
	C716.361145,817.677063 725.687134,827.190247 735.105530,836.608765 
	C743.816772,845.320068 752.529419,854.029968 761.241028,862.740906 
	C770.660767,872.159790 780.080688,881.578430 789.499329,890.998413 
	C797.739136,899.239441 805.976318,907.483154 814.216614,915.723694 
	C823.399536,924.907043 832.585083,934.087769 841.768860,943.270264 
	C850.481689,951.981812 859.193848,960.693970 867.905884,969.406250 
	C877.325378,978.825867 886.771423,988.219238 896.144226,997.685120 
	C898.340027,999.902771 900.146667,1002.510193 902.375366,1004.689880 
	C908.921997,1011.092896 915.590881,1017.370911 922.483276,1023.957092 
	C913.221558,1033.238281 904.312683,1042.172974 895.395813,1051.099487 
	C886.570801,1059.934082 877.737549,1068.760498 868.908020,1077.590454 
	C859.724609,1086.774292 850.541992,1095.958862 841.357971,1105.141846 
	C832.999268,1113.499512 824.638062,1121.854858 816.279785,1130.213013 
	C806.979004,1139.513916 797.681213,1148.817749 788.380371,1158.118652 
	C780.257751,1166.241089 772.131897,1174.360352 764.009094,1182.482666 
	C754.118896,1192.372437 744.284790,1202.319092 734.321838,1212.135010 
	C727.769165,1218.591187 720.907349,1224.735596 714.409546,1231.244751 
	C706.849915,1238.817383 699.357849,1246.474121 692.173767,1254.399902 
	C686.534058,1260.621826 680.136414,1266.643188 676.321228,1273.929443 
	C668.709595,1288.465942 664.488525,1304.220581 668.117554,1320.859619 
	C669.837646,1328.746460 671.261230,1337.257324 675.335449,1343.954590 
	C683.799988,1357.868408 694.657349,1369.346558 710.805054,1375.746460 
	C727.249329,1382.263794 743.343384,1383.907959 760.012024,1378.791138 
	C766.992798,1376.648193 774.558960,1374.346436 780.061401,1369.894897 
	C790.669373,1361.312988 800.064758,1351.218018 809.839661,1341.624756 
	C819.345825,1332.295288 828.698303,1322.809204 838.116699,1313.390381 
	C846.946899,1304.559692 855.774658,1295.726562 864.604309,1286.895508 
	C873.669556,1277.829102 882.735901,1268.763916 891.801758,1259.698120 
	C900.514343,1250.985596 909.226746,1242.273071 917.939270,1233.560547 
	C926.887268,1224.612427 935.835083,1215.664062 944.783325,1206.716187 
	C952.906738,1198.593140 961.030701,1190.470703 969.154175,1182.347900 
	C978.927612,1172.575073 988.694519,1162.795898 998.478760,1153.033936 
	C1001.014160,1150.504395 1003.576355,1148.000366 1006.173096,1145.533936 
	C1012.587341,1139.441528 1019.028625,1133.377563 1025.818237,1126.962891 
	C1034.507324,1135.771606 1043.359497,1144.792847 1052.265747,1153.760254 
	C1060.947632,1162.501831 1069.685425,1171.187866 1078.397827,1179.899170 
	C1087.582031,1189.082153 1096.765137,1198.266235 1105.948730,1207.449829 
	C1114.543213,1216.044312 1123.137695,1224.638916 1131.732300,1233.233276 
	C1140.562744,1242.063599 1149.393433,1250.893677 1158.223877,1259.723999 
	C1167.289795,1268.789551 1176.355713,1277.855103 1185.421265,1286.921021 
	C1194.015381,1295.515503 1202.608521,1304.110718 1211.202881,1312.704956 
	C1219.914917,1321.416992 1228.691406,1330.065674 1237.319946,1338.859741 
	C1243.996948,1345.664795 1249.969604,1353.266968 1257.213013,1359.380127 
	C1264.169556,1365.251465 1270.197144,1372.661743 1280.066528,1374.716553 
	C1288.752197,1376.524780 1297.067871,1380.941895 1305.763794,1381.691650 
	C1322.422729,1383.128052 1338.124634,1378.568604 1351.998901,1368.994751 
	C1372.534302,1354.824097 1381.919800,1334.542236 1382.922852,1310.122803 
	C1383.351440,1299.690430 1379.962280,1290.045898 1376.481079,1280.202271 
	C1373.002563,1270.366821 1366.470093,1263.159668 1360.031006,1255.846436 
	C1353.094971,1247.968506 1344.908325,1241.199951 1337.374878,1233.837158 
	C1330.352173,1226.973511 1323.471191,1219.965088 1316.018066,1212.523315 
z"/>
<path fill="#E47347" opacity="1.000000" stroke="none" 
	d="
M1316.272949,1212.771851 
	C1323.471191,1219.965088 1330.352173,1226.973511 1337.374878,1233.837158 
	C1344.908325,1241.199951 1353.094971,1247.968506 1360.031006,1255.846436 
	C1366.470093,1263.159668 1373.002563,1270.366821 1376.481079,1280.202271 
	C1379.962280,1290.045898 1383.351440,1299.690430 1382.922852,1310.122803 
	C1381.919800,1334.542236 1372.534302,1354.824097 1351.998901,1368.994751 
	C1338.124634,1378.568604 1322.422729,1383.128052 1305.763794,1381.691650 
	C1297.067871,1380.941895 1288.752197,1376.524780 1280.066528,1374.716553 
	C1270.197144,1372.661743 1264.169556,1365.251465 1257.213013,1359.380127 
	C1249.969604,1353.266968 1243.996948,1345.664795 1237.319946,1338.859741 
	C1228.691406,1330.065674 1219.914917,1321.416992 1211.202881,1312.704956 
	C1202.608521,1304.110718 1194.015381,1295.515503 1185.421265,1286.921021 
	C1176.355713,1277.855103 1167.289795,1268.789551 1158.223877,1259.723999 
	C1149.393433,1250.893677 1140.562744,1242.063599 1131.732300,1233.233276 
	C1123.137695,1224.638916 1114.543213,1216.044312 1105.948730,1207.449829 
	C1096.765137,1198.266235 1087.582031,1189.082153 1078.397827,1179.899170 
	C1069.685425,1171.187866 1060.947632,1162.501831 1052.265747,1153.760254 
	C1043.359497,1144.792847 1034.507324,1135.771606 1025.818237,1126.962891 
	C1019.028625,1133.377563 1012.587341,1139.441528 1006.173096,1145.533936 
	C1003.576355,1148.000366 1001.014160,1150.504395 998.478760,1153.033936 
	C988.694519,1162.795898 978.927612,1172.575073 969.154175,1182.347900 
	C961.030701,1190.470703 952.906738,1198.593140 944.783325,1206.716187 
	C935.835083,1215.664062 926.887268,1224.612427 917.939270,1233.560547 
	C909.226746,1242.273071 900.514343,1250.985596 891.801758,1259.698120 
	C882.735901,1268.763916 873.669556,1277.829102 864.604309,1286.895508 
	C855.774658,1295.726562 846.946899,1304.559692 838.116699,1313.390381 
	C828.698303,1322.809204 819.345825,1332.295288 809.839661,1341.624756 
	C800.064758,1351.218018 790.669373,1361.312988 780.061401,1369.894897 
	C774.558960,1374.346436 766.992798,1376.648193 760.012024,1378.791138 
	C743.343384,1383.907959 727.249329,1382.263794 710.805054,1375.746460 
	C694.657349,1369.346558 683.799988,1357.868408 675.335449,1343.954590 
	C671.261230,1337.257324 669.837646,1328.746460 668.117554,1320.859619 
	C664.488525,1304.220581 668.709595,1288.465942 676.321228,1273.929443 
	C680.136414,1266.643188 686.534058,1260.621826 692.173767,1254.399902 
	C699.357849,1246.474121 706.849915,1238.817383 714.409546,1231.244751 
	C720.907349,1224.735596 727.769165,1218.591187 734.321838,1212.135010 
	C744.284790,1202.319092 754.118896,1192.372437 764.009094,1182.482666 
	C772.131897,1174.360352 780.257751,1166.241089 788.380371,1158.118652 
	C797.681213,1148.817749 806.979004,1139.513916 816.279785,1130.213013 
	C824.638062,1121.854858 832.999268,1113.499512 841.357971,1105.141846 
	C850.541992,1095.958862 859.724609,1086.774292 868.908020,1077.590454 
	C877.737549,1068.760498 886.570801,1059.934082 895.395813,1051.099487 
	C904.312683,1042.172974 913.221558,1033.238281 922.483276,1023.957092 
	C915.590881,1017.370911 908.921997,1011.092896 902.375366,1004.689880 
	C900.146667,1002.510193 898.340027,999.902771 896.144226,997.685120 
	C886.771423,988.219238 877.325378,978.825867 867.905884,969.406250 
	C859.193848,960.693970 850.481689,951.981812 841.768860,943.270264 
	C832.585083,934.087769 823.399536,924.907043 814.216614,915.723694 
	C805.976318,907.483154 797.739136,899.239441 789.499329,890.998413 
	C780.080688,881.578430 770.660767,872.159790 761.241028,862.740906 
	C752.529419,854.029968 743.816772,845.320068 735.105530,836.608765 
	C725.687134,827.190247 716.361145,817.677063 706.827698,808.376404 
	C695.958496,797.772644 684.076721,787.898987 676.474182,774.626892 
	C672.327271,767.387329 670.129883,758.825317 668.162537,750.594604 
	C665.635681,740.023254 667.268127,729.435547 669.834106,718.899170 
	C673.464233,703.993225 681.685852,692.033447 693.211853,682.543091 
	C707.570923,670.720032 724.488953,665.361816 743.135620,666.039001 
	C752.145264,666.366150 760.790527,668.311584 768.754517,672.858948 
	C770.691284,673.964844 773.433472,673.836243 775.135681,675.145752 
	C781.722656,680.212830 788.253357,685.395447 794.402649,690.978271 
	C802.323059,698.169067 809.898254,705.743591 817.532959,713.243591 
	C819.875732,715.544922 821.815369,718.253601 824.129028,720.588013 
	C833.856750,730.403259 843.657471,740.146240 853.428955,749.918152 
	C861.433594,757.923218 869.433838,765.932739 877.437927,773.938354 
	C886.856384,783.358704 896.276855,792.777100 905.696594,802.196228 
	C914.290710,810.789673 922.885071,819.382874 931.478882,827.976624 
	C940.426880,836.924438 949.374451,845.872742 958.322144,854.820923 
	C966.445251,862.944458 974.568054,871.068298 982.691162,879.191833 
	C992.110352,888.611450 1001.541138,898.019592 1010.944153,907.455322 
	C1015.461914,911.988892 1019.927490,916.574463 1024.246582,920.963623 
	C1030.942749,914.642639 1037.384766,908.584900 1043.797607,902.496521 
	C1046.394043,900.031555 1048.950317,897.523254 1051.484985,894.994629 
	C1061.269287,885.234131 1071.037842,875.457764 1080.811401,865.686462 
	C1089.053101,857.446533 1097.293701,849.205505 1105.534424,840.964478 
	C1114.717896,831.780701 1123.900635,822.596191 1133.083862,813.412292 
	C1141.206177,805.289490 1149.328491,797.166809 1157.451416,789.044678 
	C1166.988159,779.508728 1176.525513,769.973389 1186.062500,760.437500 
	C1194.539917,751.961060 1203.017212,743.484436 1211.494141,735.007507 
	C1220.442261,726.059326 1229.322388,717.041748 1238.355591,708.180298 
	C1248.726929,698.006226 1258.555664,687.102356 1269.942139,678.208069 
	C1276.508423,673.078918 1285.454346,670.437134 1293.739746,668.189697 
	C1308.899780,664.077393 1323.635376,666.192444 1338.475098,671.839539 
	C1354.775024,678.042297 1365.906006,689.612244 1374.474976,703.608948 
	C1378.727539,710.555176 1380.159180,719.455200 1381.872925,727.678406 
	C1384.774658,741.600464 1381.521240,754.674866 1376.427246,767.887512 
	C1372.294434,778.607300 1365.098633,786.280396 1357.481445,794.069641 
	C1350.000000,801.720154 1342.756836,809.605347 1335.215332,817.194946 
	C1329.672119,822.773621 1323.688354,827.914001 1318.131348,833.479858 
	C1310.571045,841.052002 1303.265381,848.877991 1295.771484,856.517456 
	C1293.821899,858.504944 1291.467529,860.092468 1289.487793,862.054016 
	C1280.143555,871.312439 1270.864746,880.636780 1261.562988,889.937927 
	C1252.496826,899.003479 1243.431030,908.069336 1234.365234,917.135010 
	C1225.770630,925.729492 1217.176392,934.324280 1208.581787,942.918884 
	C1199.516113,951.984558 1190.450317,961.050049 1181.384521,970.115784 
	C1172.554321,978.946045 1163.737549,987.790161 1154.890137,996.603271 
	C1145.928101,1005.530579 1136.935669,1014.427307 1127.606812,1023.684387 
	C1190.559326,1086.779785 1253.288696,1149.651611 1316.272949,1212.771851 
z"/>
</svg>