<svg width="49" height="30" viewBox="0 0 49 30" fill="none" xmlns="http://www.w3.org/2000/svg">
<rect width="48" height="48" fill="white" />
<g transform="translate(1, 5)">
<path d="M13.8008 6.36328C12.8893 6.36328 12.0755 6.55859 11.3594 6.94922C10.6432 7.32682 10.0312 7.88021 9.52344 8.60938C9.01562 9.33854 8.625 10.2305 8.35156 11.2852C8.09115 12.3268 7.96094 13.5117 7.96094 14.8398C7.96094 16.6367 8.1888 18.1471 8.64453 19.3711C9.10026 20.5951 9.79036 21.5195 10.7148 22.1445C11.6523 22.7695 12.8242 23.082 14.2305 23.082C15.5065 23.082 16.7305 22.9062 17.9023 22.5547C19.0872 22.2031 20.2786 21.7799 21.4766 21.2852V27.8086C20.2135 28.3685 18.918 28.7721 17.5898 29.0195C16.2747 29.2669 14.875 29.3906 13.3906 29.3906C10.2917 29.3906 7.7526 28.7786 5.77344 27.5547C3.80729 26.3177 2.35547 24.6055 1.41797 22.418C0.49349 20.2305 0.03125 17.6914 0.03125 14.8008C0.03125 12.6393 0.330729 10.6602 0.929688 8.86328C1.54167 7.06641 2.43359 5.51042 3.60547 4.19531C4.77734 2.86719 6.22266 1.84505 7.94141 1.12891C9.67318 0.39974 11.6523 0.0351562 13.8789 0.0351562C15.2591 0.0351562 16.7109 0.197917 18.2344 0.523438C19.7708 0.835938 21.2682 1.34375 22.7266 2.04688L20.3633 8.12109C19.3216 7.6263 18.2669 7.20964 17.1992 6.87109C16.1315 6.53255 14.9987 6.36328 13.8008 6.36328Z" fill="#34415D"/>
<path d="M39.7773 6.36328C38.8659 6.36328 38.0521 6.55859 37.3359 6.94922C36.6198 7.32682 36.0078 7.88021 35.5 8.60938C34.9922 9.33854 34.6016 10.2305 34.3281 11.2852C34.0677 12.3268 33.9375 13.5117 33.9375 14.8398C33.9375 16.6367 34.1654 18.1471 34.6211 19.3711C35.0768 20.5951 35.7669 21.5195 36.6914 22.1445C37.6289 22.7695 38.8008 23.082 40.207 23.082C41.4831 23.082 42.707 22.9062 43.8789 22.5547C45.0638 22.2031 46.2552 21.7799 47.4531 21.2852V27.8086C46.1901 28.3685 44.8945 28.7721 43.5664 29.0195C42.2513 29.2669 40.8516 29.3906 39.3672 29.3906C36.2682 29.3906 33.7292 28.7786 31.75 27.5547C29.7839 26.3177 28.332 24.6055 27.3945 22.418C26.4701 20.2305 26.0078 17.6914 26.0078 14.8008C26.0078 12.6393 26.3073 10.6602 26.9062 8.86328C27.5182 7.06641 28.4102 5.51042 29.582 4.19531C30.7539 2.86719 32.1992 1.84505 33.918 1.12891C35.6497 0.39974 37.6289 0.0351562 39.8555 0.0351562C41.2357 0.0351562 42.6875 0.197917 44.2109 0.523438C45.7474 0.835938 47.2448 1.34375 48.7031 2.04688L46.3398 8.12109C45.2982 7.6263 44.2435 7.20964 43.1758 6.87109C42.1081 6.53255 40.9753 6.36328 39.7773 6.36328Z" fill="#E37347"/>
</g>
</svg>
